<?xml version="1.0" encoding="iso-8859-1"?>
<!-- Generator: Adobe Illustrator 19.0.0, SVG Export Plug-In . SVG Version: 6.00 Build 0)  -->
<svg version="1.1" id="Layer_1" xmlns="http://www.w3.org/2000/svg" xmlns:xlink="http://www.w3.org/1999/xlink" x="0px" y="0px"
	 viewBox="0 0 512 512" style="enable-background:new 0 0 512 512;" xml:space="preserve">
<path style="fill:#FFB64D;" d="M118.23,308.767l-3.02-31.347c0.355-11.086,2.163-21.65,5.183-31.347l-2.121-21.943
	c-2.832-7.461-4.378-15.548-4.378-24.001c0-26.206,14.838-48.922,36.571-60.249l21.943-25.088
	c5.611-5.193,13.103-8.359,21.337-8.359c0.157,0,0.303,0.01,0.449,0.01c3.594-13.406,15.83-23.27,30.365-23.27
	c17.366,0,31.441,14.075,31.441,31.441c0-17.366,14.075-31.441,31.441-31.441c14.535,0,26.77,9.864,30.365,23.27
	c0.146,0,0.293-0.01,0.449-0.01c16.394,0,29.863,12.57,31.305,28.599c28.066,8.338,48.546,34.314,48.546,65.097
	c0,13.134-3.741,25.401-10.209,35.798c5.684,13.343,8.955,28.881,8.955,45.464c0,40.97-19.863,75.525-47.041,86.455
	c0.324,2.1,0.512,4.253,0.512,6.457c0,19.487-13.646,35.767-31.89,39.863c-2.518,14.848-15.433,26.154-30.992,26.154
	c-17.366,0-31.441-14.075-31.441-31.441c0,17.366-14.075,31.441-31.441,31.441c-15.559,0-28.473-11.306-30.992-26.154
	c-18.244-4.096-31.89-20.375-31.89-39.863c0-2.205,0.188-4.357,0.512-6.457c-15.391-6.186-28.442-19.958-36.854-38.181
	L118.23,308.767z"/>
<rect x="187.559" y="193.306" style="fill:#4DD0E2;" width="136.882" height="136.882"/>
<rect x="219.951" y="225.698" style="fill:#FFFFFF;" width="72.098" height="72.098"/>
<path d="M358.129,372.637c14.753-7.654,27.273-21.537,35.65-39.687l-14.23-6.568c-7.699,16.68-19.298,28.824-32.66,34.193
	l-5.771,2.32l0.949,6.147c0.283,1.835,0.42,3.556,0.42,5.263c0,15.315-10.838,28.863-25.77,32.216l-5.13,1.152l-0.88,5.184
	c-1.928,11.372-11.713,19.626-23.265,19.626c-13.015,0-23.604-10.589-23.604-23.604v-25.924h-15.673v25.924
	c0,13.015-10.589,23.604-23.604,23.604c-11.552,0-21.337-8.255-23.266-19.627l-0.88-5.184l-5.13-1.153
	c-14.933-3.352-25.77-16.901-25.77-32.216c0-1.706,0.138-3.428,0.42-5.263l0.949-6.147l-5.771-2.32
	c-13.363-5.371-24.962-17.514-32.66-34.193l-14.23,6.568c8.378,18.15,20.897,32.033,35.65,39.687c-0.02,0.56-0.03,1.115-0.03,1.667
	c0,21.259,13.415,39.59,33.183,46.169c4.994,16.311,20.048,27.685,37.536,27.685c12.845,0,24.27-6.199,31.441-15.76
	c7.171,9.562,18.596,15.76,31.441,15.76c17.487,0,32.542-11.374,37.536-27.685c19.767-6.578,33.183-24.909,33.183-46.169
	C358.16,373.753,358.149,373.197,358.129,372.637z"/>
<path d="M177.731,120.544c4.372-4.046,10.058-6.274,15.963-6.274c0.001,0,0.001,0,0.001,0c0.168,0.006,0.333,0.01,0.499,0.01h6.012
	l1.557-5.808c2.756-10.282,12.13-17.462,22.795-17.462c13.015,0,23.604,10.589,23.604,23.604v25.924h15.673v-25.924
	c0-13.015,10.589-23.604,23.604-23.604c10.665,0,20.039,7.182,22.796,17.462l1.557,5.808h6.012c0.165,0,0.33-0.004,0.449-0.01
	c12.095,0,22.417,9.428,23.5,21.464l0.476,5.296l5.097,1.514c23.307,6.925,40.46,27.821,42.681,52.001l15.609-1.434
	c-2.693-29.305-21.746-53.929-49.07-64.01c-3.609-16.042-16.769-28.043-33.088-30.169c-6.151-14.136-20.237-23.595-36.019-23.595
	c-12.845,0-24.27,6.199-31.441,15.761c-7.171-9.562-18.596-15.761-31.441-15.761c-15.785,0-29.873,9.462-36.023,23.603
	c-7.985,1.063-15.461,4.556-21.452,10.1L177.731,120.544z"/>
<path d="M299.886,217.861h-87.771v87.771h87.771V217.861z M284.212,289.959h-56.424v-56.424h56.424V289.959z"/>
<path d="M493.714,365.872v-96.288H332.278V253.91h161.437v-36.729c10.587-3.336,18.286-13.245,18.286-24.92
	c0-14.404-11.719-26.122-26.122-26.122s-26.122,11.719-26.122,26.122c0,11.675,7.699,21.583,18.286,24.92v21.056H332.278v-15.673
	h110.759V97.018c10.587-3.336,18.286-13.245,18.286-24.92c0-14.404-11.719-26.122-26.122-26.122s-26.122,11.719-26.122,26.122
	c0,11.675,7.699,21.583,18.286,24.92V206.89h-95.086v-21.42h-21.42v-18.808h-15.673v18.808H279.51v-18.808h-15.673v18.808h-15.673
	v-18.808H232.49v18.808h-15.673v-18.808h-15.673v18.808h-21.42v21.42h-21.42V83.434c10.587-3.336,18.286-13.245,18.286-24.92
	c0-14.404-11.719-26.122-26.122-26.122c-14.404,0-26.122,11.719-26.122,26.122c0,11.675,7.699,21.583,18.286,24.92v51.872
	c-22.674,13.692-36.571,38.104-36.571,64.823c0,9.225,1.645,18.237,4.888,26.782l14.653-5.561
	c-2.566-6.763-3.868-13.902-3.868-21.221c0-17.784,7.769-34.278,20.898-45.544v67.978h37.095v15.673H85.159v-52.767H51.042
	c-3.336-10.587-13.245-18.286-24.92-18.286C11.719,167.184,0,178.902,0,193.306c0,14.404,11.719,26.122,26.122,26.122
	c11.675,0,21.583-7.699,24.92-18.286h18.443v52.767h110.237v15.673H51.042c-3.336-10.587-13.245-18.286-24.92-18.286
	C11.719,251.298,0,263.016,0,277.42c0,14.404,11.719,26.122,26.122,26.122c11.675,0,21.583-7.699,24.92-18.286h128.68v15.673H59.037
	v71.211c-10.587,3.336-18.286,13.245-18.286,24.92c0,14.404,11.719,26.122,26.122,26.122s26.122-11.719,26.122-26.122
	c0-11.675-7.699-21.583-18.286-24.92v-55.537h105.012v21.42h21.42v18.808h15.673v-18.808h15.673v18.808h15.673v-18.808h15.673
	v18.808h15.673v-18.808h15.673v18.808h15.673v-18.808h21.42v-21.42h95.086v66.351h-57.469v45.611
	c-10.587,3.336-18.286,13.245-18.286,24.92c0,14.404,11.719,26.122,26.122,26.122s26.122-11.719,26.122-26.122
	c0-11.675-7.699-21.583-18.286-24.92v-29.937h57.469v-97.698H332.278v-15.673h145.763v80.615
	c-10.587,3.336-18.286,13.245-18.286,24.92c0,14.404,11.719,26.122,26.122,26.122S512,405.196,512,390.792
	C512,379.117,504.301,369.208,493.714,365.872z M485.878,181.812c5.762,0,10.449,4.687,10.449,10.449s-4.687,10.449-10.449,10.449
	s-10.449-4.687-10.449-10.449S480.116,181.812,485.878,181.812z M435.2,61.649c5.762,0,10.449,4.687,10.449,10.449
	s-4.687,10.449-10.449,10.449s-10.449-4.687-10.449-10.449S429.438,61.649,435.2,61.649z M150.465,48.065
	c5.762,0,10.449,4.687,10.449,10.449s-4.687,10.449-10.449,10.449c-5.762,0-10.449-4.687-10.449-10.449
	S144.704,48.065,150.465,48.065z M26.122,203.755c-5.762,0-10.449-4.687-10.449-10.449c0-5.762,4.687-10.449,10.449-10.449
	s10.449,4.687,10.449,10.449C36.571,199.068,31.884,203.755,26.122,203.755z M26.122,287.869c-5.762,0-10.449-4.687-10.449-10.449
	c0-5.762,4.687-10.449,10.449-10.449s10.449,4.687,10.449,10.449C36.571,283.182,31.884,287.869,26.122,287.869z M66.873,407.51
	c-5.762,0-10.449-4.687-10.449-10.449c0-5.762,4.687-10.449,10.449-10.449s10.449,4.687,10.449,10.449
	C77.322,402.823,72.635,407.51,66.873,407.51z M377.731,463.935c-5.762,0-10.449-4.687-10.449-10.449
	c0-5.762,4.687-10.449,10.449-10.449s10.449,4.687,10.449,10.449C388.18,459.247,383.492,463.935,377.731,463.935z M316.604,322.351
	H195.396V201.143h121.208V322.351z M485.878,401.241c-5.762,0-10.449-4.687-10.449-10.449c0-5.762,4.687-10.449,10.449-10.449
	s10.449,4.687,10.449,10.449C496.327,396.553,491.639,401.241,485.878,401.241z"/>
<g>
</g>
<g>
</g>
<g>
</g>
<g>
</g>
<g>
</g>
<g>
</g>
<g>
</g>
<g>
</g>
<g>
</g>
<g>
</g>
<g>
</g>
<g>
</g>
<g>
</g>
<g>
</g>
<g>
</g>
</svg>
